<svg preserveAspectRatio="none" overflow="visible" style="display: block;" width="29" height="25" viewBox="0 0 29 25" fill="none" xmlns="http://www.w3.org/2000/svg">
<g id="Group 15">
<path id="Vector" d="M3.5 20.5C3.5 21.6046 4.39543 22.5 5.5 22.5H23.5C24.6046 22.5 25.5 21.6046 25.5 20.5M7.5 22.5C7.5 23.6046 8.3954 24.5 9.5 24.5H19.5C20.6046 24.5 21.5 23.6046 21.5 22.5" stroke="#193962" stroke-linecap="round" stroke-linejoin="round"/>
<path id="Vector_2" fill-rule="evenodd" clip-rule="evenodd" d="M26.5 20.5H14.5H2.5C1.39543 20.5 0.5 19.6046 0.5 18.5V14.5V2.5C0.5 1.39543 1.39543 0.5 2.5 0.5H26.5C27.6046 0.5 28.5 1.39543 28.5 2.5V14.5V18.5C28.5 19.6046 27.6046 20.5 26.5 20.5ZM6.3478 10.1364C10.3817 2.28793 18.6183 2.28784 22.6522 10.1363C22.7684 10.3624 22.7684 10.6375 22.6522 10.8636C18.6183 18.712 10.3817 18.7121 6.3478 10.8636C6.2316 10.6376 6.2316 10.3625 6.3478 10.1364Z" fill="url(#paint0_linear_0_4)" fill-opacity="0.32"/>
<path id="Vector_3" d="M22.5 0.5H26.5C27.6046 0.5 28.5 1.39543 28.5 2.5V14.5V18.5C28.5 19.6046 27.6046 20.5 26.5 20.5H14.5H2.5C1.39543 20.5 0.5 19.6046 0.5 18.5V14.5V2.5C0.5 1.39543 1.39543 0.5 2.5 0.5H6.5M9.5 0.5H19.5" stroke="#193962" stroke-linecap="round" stroke-linejoin="round"/>
<path id="Vector_4" d="M8 3.5H4C3.72386 3.5 3.5 3.72386 3.5 4C3.5 4.27614 3.72386 4.5 4 4.5H8C8.27614 4.5 8.5 4.27614 8.5 4C8.5 3.72386 8.27614 3.5 8 3.5Z" fill="#111111" fill-opacity="0.2"/>
<path id="Vector_5" d="M25 3.5H21C20.7239 3.5 20.5 3.72386 20.5 4C20.5 4.27614 20.7239 4.5 21 4.5H25C25.2761 4.5 25.5 4.27614 25.5 4C25.5 3.72386 25.2761 3.5 25 3.5Z" fill="#111111" fill-opacity="0.2"/>
<path id="Vector_6" d="M8 16.5H4C3.72386 16.5 3.5 16.7239 3.5 17C3.5 17.2761 3.72386 17.5 4 17.5H8C8.27614 17.5 8.5 17.2761 8.5 17C8.5 16.7239 8.27614 16.5 8 16.5Z" fill="#111111" fill-opacity="0.2"/>
<path id="Vector_7" d="M25 16.5H21C20.7239 16.5 20.5 16.7239 20.5 17C20.5 17.2761 20.7239 17.5 21 17.5H25C25.2761 17.5 25.5 17.2761 25.5 17C25.5 16.7239 25.2761 16.5 25 16.5Z" fill="#111111" fill-opacity="0.2"/>
<path id="Vector_8" d="M5 6.5H4C3.72386 6.5 3.5 6.72386 3.5 7C3.5 7.27614 3.72386 7.5 4 7.5H5C5.27614 7.5 5.5 7.27614 5.5 7C5.5 6.72386 5.27614 6.5 5 6.5Z" fill="#111111" fill-opacity="0.2"/>
<path id="Vector_9" d="M25 6.5H24C23.7239 6.5 23.5 6.72386 23.5 7C23.5 7.27614 23.7239 7.5 24 7.5H25C25.2761 7.5 25.5 7.27614 25.5 7C25.5 6.72386 25.2761 6.5 25 6.5Z" fill="#111111" fill-opacity="0.2"/>
<path id="Vector_10" d="M5 13.5H4C3.72386 13.5 3.5 13.7239 3.5 14C3.5 14.2761 3.72386 14.5 4 14.5H5C5.27614 14.5 5.5 14.2761 5.5 14C5.5 13.7239 5.27614 13.5 5 13.5Z" fill="#111111" fill-opacity="0.2"/>
<path id="Vector_11" d="M25 13.5H24C23.7239 13.5 23.5 13.7239 23.5 14C23.5 14.2761 23.7239 14.5 24 14.5H25C25.2761 14.5 25.5 14.2761 25.5 14C25.5 13.7239 25.2761 13.5 25 13.5Z" fill="#111111" fill-opacity="0.2"/>
<path id="Vector_12" d="M4.5 10C4.5 9.72386 4.27614 9.5 4 9.5C3.72386 9.5 3.5 9.72386 3.5 10C3.5 10.2761 3.72386 10.5 4 10.5C4.27614 10.5 4.5 10.2761 4.5 10Z" fill="#111111" fill-opacity="0.2"/>
<path id="Vector_13" d="M25.5 10C25.5 9.72386 25.2761 9.5 25 9.5C24.7239 9.5 24.5 9.72386 24.5 10C24.5 10.2761 24.7239 10.5 25 10.5C25.2761 10.5 25.5 10.2761 25.5 10Z" fill="#111111" fill-opacity="0.2"/>
<path id="Vector_14" d="M22.6523 10.1363C18.6183 2.28784 10.3818 2.28793 6.34789 10.1364C6.23169 10.3625 6.23169 10.6376 6.34789 10.8636C10.3818 18.7121 18.6183 18.712 22.6523 10.8636C22.7684 10.6375 22.7684 10.3624 22.6523 10.1363Z" stroke="#193962" stroke-linecap="round" stroke-linejoin="round"/>
<path id="Vector_15" d="M15.5 8.5L17.1464 10.1464C17.3417 10.3417 17.3417 10.6583 17.1464 10.8536L15.5 12.5" stroke="#193962" stroke-linecap="round" stroke-linejoin="round"/>
<path id="Vector_16" d="M13.4999 8.5L11.8535 10.1464C11.6582 10.3417 11.6582 10.6583 11.8535 10.8536L13.4999 12.5" stroke="#193962" stroke-linecap="round" stroke-linejoin="round"/>
</g>
<defs>
<linearGradient id="paint0_linear_0_4" x1="14.5" y1="0.5" x2="14.5" y2="20.5" gradientUnits="userSpaceOnUse">
<stop stop-color="#818498"/>
<stop offset="1" stop-color="#818498" stop-opacity="0"/>
</linearGradient>
</defs>
</svg>
