<svg preserveAspectRatio="none" overflow="visible" style="display: block;" width="145.975" height="277.928" viewBox="0 0 145.975 277.928" fill="none" xmlns="http://www.w3.org/2000/svg">
<g id="Group 9" opacity="0.2">
<path id="Vector" d="M80.878 93.0821C106.582 93.0821 127.419 72.245 127.419 46.5411C127.419 20.8372 106.582 6.34514e-05 80.878 6.34514e-05C55.1742 6.34514e-05 34.337 20.8372 34.337 46.5411C34.337 72.245 55.1742 93.0821 80.878 93.0821Z" fill="url(#paint0_radial_0_9)"/>
<path id="Vector_2" opacity="0.6" d="M80.878 93.0821C106.582 93.0821 127.419 72.245 127.419 46.5411C127.419 20.8372 106.582 6.34514e-05 80.878 6.34514e-05C55.1742 6.34514e-05 34.337 20.8372 34.337 46.5411C34.337 72.245 55.1742 93.0821 80.878 93.0821Z" fill="url(#paint1_radial_0_9)"/>
<path id="Vector_3" opacity="0.3" d="M80.878 93.0821C106.582 93.0821 127.419 72.245 127.419 46.5411C127.419 20.8372 106.582 6.34514e-05 80.878 6.34514e-05C55.1742 6.34514e-05 34.337 20.8372 34.337 46.5411C34.337 72.245 55.1742 93.0821 80.878 93.0821Z" fill="url(#paint2_radial_0_9)"/>
<path id="Vector_4" d="M39.412 46.8311C39.412 31.1911 50.125 14.2901 60.26 10.3531C46.884 14.3581 36.952 29.1661 36.952 46.8311C36.952 64.4961 46.884 79.3041 60.26 83.3081C50.415 77.9901 39.412 62.4711 39.412 46.8311Z" fill="url(#paint3_radial_0_9)"/>
<path id="Vector_5" d="M81.071 89.0289C68.45 89.0289 56.963 84.3499 48.366 76.6939C56.488 85.9359 68.132 91.7309 81.071 91.7309C94.011 91.7309 105.654 85.9359 113.777 76.6939C105.18 84.3499 93.692 89.0289 81.071 89.0289Z" fill="url(#paint4_radial_0_9)"/>
<path id="Vector_6" d="M80.74 1.25495C67.693 1.25495 55.94 6.76395 47.655 15.5719C55.784 7.92595 66.722 3.23295 78.762 3.23295C103.849 3.23295 124.187 23.5699 124.187 48.6579C124.187 60.6979 119.494 71.6359 111.848 79.7649C120.657 71.4799 126.165 59.7259 126.165 46.6799C126.165 21.5919 105.827 1.25495 80.74 1.25495Z" fill="url(#paint5_radial_0_9)"/>
<path id="Vector_7" d="M133.126 54.911C140.222 54.911 145.975 49.1583 145.975 42.062C145.975 34.9656 140.222 29.213 133.126 29.213C126.03 29.213 120.277 34.9656 120.277 42.062C120.277 49.1583 126.03 54.911 133.126 54.911Z" fill="url(#paint6_radial_0_9)"/>
<path id="Vector_8" opacity="0.6" d="M133.126 54.911C140.222 54.911 145.975 49.1583 145.975 42.062C145.975 34.9656 140.222 29.213 133.126 29.213C126.03 29.213 120.277 34.9656 120.277 42.062C120.277 49.1583 126.03 54.911 133.126 54.911Z" fill="url(#paint7_radial_0_9)"/>
<path id="Vector_9" opacity="0.3" d="M133.126 54.911C140.222 54.911 145.975 49.1583 145.975 42.062C145.975 34.9656 140.222 29.213 133.126 29.213C126.03 29.213 120.277 34.9656 120.277 42.062C120.277 49.1583 126.03 54.911 133.126 54.911Z" fill="url(#paint8_radial_0_9)"/>
<path id="Vector_10" d="M121.678 42.1421C121.678 37.8241 124.636 33.1581 127.433 32.0721C123.74 33.1781 120.998 37.2661 120.998 42.1421C120.998 47.0191 123.74 51.1071 127.433 52.2121C124.716 50.7441 121.678 46.4601 121.678 42.1421Z" fill="url(#paint9_radial_0_9)"/>
<path id="Vector_11" d="M133.179 53.792C129.695 53.792 126.523 52.5 124.15 50.387C126.392 52.939 129.607 54.538 133.179 54.538C136.751 54.538 139.966 52.938 142.208 50.387C139.835 52.5 136.664 53.792 133.179 53.792Z" fill="url(#paint10_radial_0_9)"/>
<path id="Vector_12" d="M133.088 29.5601C129.486 29.5601 126.241 31.0811 123.954 33.5131C126.198 31.4021 129.218 30.1071 132.542 30.1071C139.468 30.1071 145.082 35.7221 145.082 42.6481C145.082 45.9721 143.786 48.9921 141.676 51.2361C144.108 48.9491 145.628 45.7041 145.628 42.1021C145.628 35.1741 140.014 29.5601 133.088 29.5601Z" fill="url(#paint11_radial_0_9)"/>
<path id="Vector_13" d="M16.556 186.253C25.6996 186.253 33.112 178.841 33.112 169.697C33.112 160.553 25.6996 153.141 16.556 153.141C7.41237 153.141 0 160.553 0 169.697C0 178.841 7.41237 186.253 16.556 186.253Z" fill="url(#paint12_radial_0_9)"/>
<path id="Vector_14" opacity="0.6" d="M16.556 186.253C25.6996 186.253 33.112 178.841 33.112 169.697C33.112 160.553 25.6996 153.141 16.556 153.141C7.41237 153.141 0 160.553 0 169.697C0 178.841 7.41237 186.253 16.556 186.253Z" fill="url(#paint13_radial_0_9)"/>
<path id="Vector_15" opacity="0.3" d="M16.556 186.253C25.6996 186.253 33.112 178.841 33.112 169.697C33.112 160.553 25.6996 153.141 16.556 153.141C7.41237 153.141 0 160.553 0 169.697C0 178.841 7.41237 186.253 16.556 186.253Z" fill="url(#paint14_radial_0_9)"/>
<path id="Vector_16" d="M1.80499 169.8C1.80499 164.236 5.61599 158.224 9.22099 156.824C4.46299 158.249 0.929993 163.516 0.929993 169.8C0.929993 176.084 4.46299 181.352 9.22099 182.776C5.71899 180.884 1.80499 175.363 1.80499 169.8Z" fill="url(#paint15_radial_0_9)"/>
<path id="Vector_17" d="M16.624 184.811C12.134 184.811 8.04799 183.147 4.98999 180.423C7.87899 183.711 12.021 185.772 16.624 185.772C21.227 185.772 25.369 183.711 28.259 180.423C25.201 183.147 21.114 184.811 16.624 184.811Z" fill="url(#paint16_radial_0_9)"/>
<path id="Vector_18" d="M16.507 153.587C11.866 153.587 7.685 155.547 4.737 158.68C7.629 155.96 11.52 154.291 15.803 154.291C24.727 154.291 31.962 161.526 31.962 170.45C31.962 174.733 30.293 178.624 27.573 181.516C30.706 178.569 32.666 174.388 32.666 169.746C32.666 160.822 25.431 153.587 16.507 153.587Z" fill="url(#paint17_radial_0_9)"/>
<path id="Vector_19" d="M118.344 257.365C118.344 254.59 120.245 251.592 122.043 250.893C119.67 251.603 117.908 254.231 117.908 257.365C117.908 260.499 119.67 263.126 122.043 263.837C120.296 262.893 118.344 260.139 118.344 257.365Z" fill="url(#paint18_radial_0_9)"/>
<g id="Group 11">
<path id="Vector_20" d="M125.701 265.571C130.261 265.571 133.958 261.874 133.958 257.314C133.958 252.754 130.261 249.057 125.701 249.057C121.141 249.057 117.444 252.754 117.444 257.314C117.444 261.874 121.141 265.571 125.701 265.571Z" fill="url(#paint19_radial_0_9)"/>
<path id="Vector_21" opacity="0.6" d="M125.701 265.571C130.261 265.571 133.958 261.874 133.958 257.314C133.958 252.754 130.261 249.057 125.701 249.057C121.141 249.057 117.444 252.754 117.444 257.314C117.444 261.874 121.141 265.571 125.701 265.571Z" fill="url(#paint20_radial_0_9)"/>
<path id="Vector_22" opacity="0.3" d="M125.701 265.571C130.261 265.571 133.958 261.874 133.958 257.314C133.958 252.754 130.261 249.057 125.701 249.057C121.141 249.057 117.444 252.754 117.444 257.314C117.444 261.874 121.141 265.571 125.701 265.571Z" fill="url(#paint21_radial_0_9)"/>
<path id="Vector_23" d="M125.735 264.851C123.496 264.851 121.458 264.021 119.933 262.663C121.374 264.303 123.44 265.331 125.735 265.331C128.031 265.331 130.097 264.303 131.538 262.663C130.012 264.021 127.974 264.851 125.735 264.851Z" fill="url(#paint22_radial_0_9)"/>
<path id="Vector_24" d="M125.677 249.279C123.362 249.279 121.277 250.256 119.807 251.819C121.249 250.462 123.19 249.63 125.326 249.63C129.777 249.63 133.385 253.238 133.385 257.689C133.385 259.825 132.552 261.766 131.196 263.208C132.759 261.738 133.736 259.653 133.736 257.338C133.736 252.887 130.127 249.279 125.677 249.279Z" fill="url(#paint23_radial_0_9)"/>
</g>
<path id="Vector_25" d="M93.565 190.475C115.203 190.475 132.744 172.934 132.744 151.296C132.744 129.658 115.203 112.117 93.565 112.117C71.9271 112.117 54.386 129.658 54.386 151.296C54.386 172.934 71.9271 190.475 93.565 190.475Z" fill="url(#paint24_radial_0_9)"/>
<path id="Vector_26" opacity="0.6" d="M93.565 190.475C115.203 190.475 132.744 172.934 132.744 151.296C132.744 129.658 115.203 112.117 93.565 112.117C71.9271 112.117 54.386 129.658 54.386 151.296C54.386 172.934 71.9271 190.475 93.565 190.475Z" fill="url(#paint25_radial_0_9)"/>
<path id="Vector_27" opacity="0.3" d="M93.565 190.475C115.203 190.475 132.744 172.934 132.744 151.296C132.744 129.658 115.203 112.117 93.565 112.117C71.9271 112.117 54.386 129.658 54.386 151.296C54.386 172.934 71.9271 190.475 93.565 190.475Z" fill="url(#paint26_radial_0_9)"/>
<path id="Vector_28" d="M58.658 151.54C58.658 138.374 67.677 124.147 76.208 120.833C64.948 124.204 56.587 136.67 56.587 151.54C56.587 166.41 64.948 178.876 76.208 182.247C67.921 177.77 58.658 164.705 58.658 151.54Z" fill="url(#paint27_radial_0_9)"/>
<path id="Vector_29" d="M93.727 187.062C83.103 187.062 73.433 183.123 66.196 176.679C73.033 184.459 82.835 189.337 93.727 189.337C104.62 189.337 114.422 184.459 121.259 176.679C114.022 183.124 104.352 187.062 93.727 187.062Z" fill="url(#paint28_radial_0_9)"/>
<path id="Vector_30" d="M93.449 113.173C82.466 113.173 72.572 117.81 65.597 125.225C72.44 118.789 81.648 114.838 91.783 114.838C112.902 114.838 130.022 131.958 130.022 153.077C130.022 163.213 126.072 172.42 119.635 179.263C127.05 172.288 131.687 162.394 131.687 151.411C131.688 130.293 114.567 113.173 93.449 113.173Z" fill="url(#paint29_radial_0_9)"/>
<g id="Group 10">
<path id="Vector_31" d="M96.0052 277.928C99.7359 277.928 102.76 274.904 102.76 271.173C102.76 267.442 99.7359 264.418 96.0052 264.418C92.2745 264.418 89.2502 267.442 89.2502 271.173C89.2502 274.904 92.2745 277.928 96.0052 277.928Z" fill="url(#paint30_radial_0_9)"/>
<path id="Vector_32" opacity="0.6" d="M96.0052 277.928C99.7359 277.928 102.76 274.904 102.76 271.173C102.76 267.442 99.7359 264.418 96.0052 264.418C92.2745 264.418 89.2502 267.442 89.2502 271.173C89.2502 274.904 92.2745 277.928 96.0052 277.928Z" fill="url(#paint31_radial_0_9)"/>
<path id="Vector_33" opacity="0.3" d="M96.0052 277.928C99.7359 277.928 102.76 274.904 102.76 271.173C102.76 267.442 99.7359 264.418 96.0052 264.418C92.2745 264.418 89.2502 267.442 89.2502 271.173C89.2502 274.904 92.2745 277.928 96.0052 277.928Z" fill="url(#paint32_radial_0_9)"/>
<path id="Vector_34" d="M89.9861 271.216C89.9861 268.946 91.5411 266.493 93.0121 265.922C91.0711 266.503 89.6291 268.652 89.6291 271.216C89.6291 273.78 91.0701 275.929 93.0121 276.51C91.5831 275.738 89.9861 273.485 89.9861 271.216Z" fill="url(#paint33_radial_0_9)"/>
<path id="Vector_35" d="M96.0328 277.34C94.2008 277.34 92.5338 276.661 91.2858 275.55C92.4648 276.891 94.1548 277.732 96.0328 277.732C97.9108 277.732 99.6008 276.891 100.78 275.55C99.5318 276.661 97.8638 277.34 96.0328 277.34Z" fill="url(#paint34_radial_0_9)"/>
<path id="Vector_36" d="M95.9838 264.601C94.0908 264.601 92.3848 265.4 91.1818 266.679C92.3618 265.569 93.9488 264.888 95.6968 264.888C99.3378 264.888 102.29 267.84 102.29 271.481C102.29 273.229 101.609 274.816 100.499 275.996C101.777 274.794 102.577 273.088 102.577 271.194C102.577 267.552 99.6258 264.601 95.9838 264.601Z" fill="url(#paint35_radial_0_9)"/>
</g>
<path id="Vector_37" d="M118.323 189.762C124.132 189.762 128.842 185.053 128.842 179.243C128.842 173.434 124.132 168.724 118.323 168.724C112.514 168.724 107.804 173.434 107.804 179.243C107.804 185.053 112.514 189.762 118.323 189.762Z" fill="url(#paint36_radial_0_9)"/>
<path id="Vector_38" opacity="0.6" d="M118.323 189.762C124.132 189.762 128.842 185.053 128.842 179.243C128.842 173.434 124.132 168.724 118.323 168.724C112.514 168.724 107.804 173.434 107.804 179.243C107.804 185.053 112.514 189.762 118.323 189.762Z" fill="url(#paint37_radial_0_9)"/>
<path id="Vector_39" opacity="0.3" d="M118.323 189.762C124.132 189.762 128.842 185.053 128.842 179.243C128.842 173.434 124.132 168.724 118.323 168.724C112.514 168.724 107.804 173.434 107.804 179.243C107.804 185.053 112.514 189.762 118.323 189.762Z" fill="url(#paint38_radial_0_9)"/>
<path id="Vector_40" d="M108.951 179.309C108.951 175.774 111.372 171.954 113.663 171.065C110.64 171.97 108.395 175.317 108.395 179.309C108.395 183.301 110.64 186.648 113.663 187.553C111.438 186.351 108.951 182.844 108.951 179.309Z" fill="url(#paint39_radial_0_9)"/>
<path id="Vector_41" d="M118.367 188.846C115.515 188.846 112.918 187.788 110.976 186.058C112.812 188.147 115.443 189.456 118.367 189.456C121.291 189.456 123.923 188.146 125.759 186.058C123.815 187.788 121.219 188.846 118.367 188.846Z" fill="url(#paint40_radial_0_9)"/>
<path id="Vector_42" d="M118.292 169.008C115.343 169.008 112.687 170.253 110.814 172.244C112.651 170.516 115.123 169.455 117.844 169.455C123.514 169.455 128.11 174.051 128.11 179.721C128.11 182.442 127.049 184.914 125.321 186.751C127.312 184.879 128.557 182.222 128.557 179.274C128.558 173.605 123.962 169.008 118.292 169.008Z" fill="url(#paint41_radial_0_9)"/>
<g id="Group 13">
<path id="Vector_43" d="M94.7042 257.353C107.9 257.353 118.597 246.656 118.597 233.46C118.597 220.264 107.9 209.567 94.7042 209.567C81.5085 209.567 70.8112 220.264 70.8112 233.46C70.8112 246.656 81.5085 257.353 94.7042 257.353Z" fill="url(#paint42_radial_0_9)"/>
<path id="Vector_44" opacity="0.6" d="M94.7042 257.353C107.9 257.353 118.597 246.656 118.597 233.46C118.597 220.264 107.9 209.567 94.7042 209.567C81.5085 209.567 70.8112 220.264 70.8112 233.46C70.8112 246.656 81.5085 257.353 94.7042 257.353Z" fill="url(#paint43_radial_0_9)"/>
<path id="Vector_45" opacity="0.3" d="M94.7042 257.353C107.9 257.353 118.597 246.656 118.597 233.46C118.597 220.264 107.9 209.567 94.7042 209.567C81.5085 209.567 70.8112 220.264 70.8112 233.46C70.8112 246.656 81.5085 257.353 94.7042 257.353Z" fill="url(#paint44_radial_0_9)"/>
<path id="Vector_46" d="M73.415 233.609C73.415 225.58 78.915 216.903 84.118 214.882C77.251 216.938 72.152 224.54 72.152 233.609C72.152 242.678 77.251 250.28 84.118 252.336C79.064 249.606 73.415 241.638 73.415 233.609Z" fill="url(#paint45_radial_0_9)"/>
<path id="Vector_47" d="M94.8019 255.273C88.3229 255.273 82.4249 252.871 78.0119 248.94C82.1819 253.685 88.1589 256.66 94.8019 256.66C101.445 256.66 107.423 253.685 111.593 248.94C107.18 252.871 101.282 255.273 94.8019 255.273Z" fill="url(#paint46_radial_0_9)"/>
<path id="Vector_48" d="M94.6331 210.211C87.9351 210.211 81.9012 213.039 77.6472 217.561C81.8202 213.636 87.4362 211.226 93.6172 211.226C106.497 211.226 116.937 221.667 116.937 234.546C116.937 240.727 114.528 246.343 110.603 250.516C115.125 246.262 117.953 240.228 117.953 233.53C117.953 220.652 107.512 210.211 94.6331 210.211Z" fill="url(#paint47_radial_0_9)"/>
</g>
</g>
<defs>
<radialGradient id="paint0_radial_0_9" cx="0" cy="0" r="1" gradientUnits="userSpaceOnUse" gradientTransform="translate(87.9751 31.6263) scale(53.5854 53.5854)">
<stop stop-color="white"/>
<stop offset="1" stop-color="#1A3961"/>
</radialGradient>
<radialGradient id="paint1_radial_0_9" cx="0" cy="0" r="1" gradientUnits="userSpaceOnUse" gradientTransform="translate(87.9751 31.6263) scale(53.5854 53.5854)">
<stop stop-color="white"/>
<stop offset="1" stop-color="#1A3961"/>
</radialGradient>
<radialGradient id="paint2_radial_0_9" cx="0" cy="0" r="1" gradientUnits="userSpaceOnUse" gradientTransform="translate(87.9751 31.6263) scale(53.5854 53.5854)">
<stop stop-color="white"/>
<stop offset="1" stop-color="#1A3961"/>
</radialGradient>
<radialGradient id="paint3_radial_0_9" cx="0" cy="0" r="1" gradientUnits="userSpaceOnUse" gradientTransform="translate(50.3832 35.1408) scale(13.4179 41.9987)">
<stop stop-color="white"/>
<stop offset="1" stop-color="#1A3961"/>
</radialGradient>
<radialGradient id="paint4_radial_0_9" cx="0" cy="0" r="1" gradientUnits="userSpaceOnUse" gradientTransform="translate(86.0588 81.803) scale(37.6558 8.65649)">
<stop stop-color="white"/>
<stop offset="1" stop-color="#1A3961"/>
</radialGradient>
<radialGradient id="paint5_radial_0_9" cx="0" cy="0" r="1" gradientUnits="userSpaceOnUse" gradientTransform="translate(92.8961 27.9301) scale(45.1966 45.1966)">
<stop stop-color="white"/>
<stop offset="1" stop-color="#1A3961"/>
</radialGradient>
<radialGradient id="paint6_radial_0_9" cx="0" cy="0" r="1" gradientUnits="userSpaceOnUse" gradientTransform="translate(135.085 37.9443) scale(14.7938 14.7938)">
<stop stop-color="white"/>
<stop offset="1" stop-color="#1A3961"/>
</radialGradient>
<radialGradient id="paint7_radial_0_9" cx="0" cy="0" r="1" gradientUnits="userSpaceOnUse" gradientTransform="translate(135.085 37.9443) scale(14.7938 14.7938)">
<stop stop-color="white"/>
<stop offset="1" stop-color="#1A3961"/>
</radialGradient>
<radialGradient id="paint8_radial_0_9" cx="0" cy="0" r="1" gradientUnits="userSpaceOnUse" gradientTransform="translate(135.085 37.9443) scale(14.7938 14.7938)">
<stop stop-color="white"/>
<stop offset="1" stop-color="#1A3961"/>
</radialGradient>
<radialGradient id="paint9_radial_0_9" cx="0" cy="0" r="1" gradientUnits="userSpaceOnUse" gradientTransform="translate(124.706 38.915) scale(3.7045 11.5942)">
<stop stop-color="white"/>
<stop offset="1" stop-color="#1A3961"/>
</radialGradient>
<radialGradient id="paint10_radial_0_9" cx="0" cy="0" r="1" gradientUnits="userSpaceOnUse" gradientTransform="translate(134.556 51.7974) scale(10.3956 2.38964)">
<stop stop-color="white"/>
<stop offset="1" stop-color="#1A3961"/>
</radialGradient>
<radialGradient id="paint11_radial_0_9" cx="0" cy="0" r="1" gradientUnits="userSpaceOnUse" gradientTransform="translate(136.444 36.9249) scale(12.4773 12.4784)">
<stop stop-color="white"/>
<stop offset="1" stop-color="#1A3961"/>
</radialGradient>
<radialGradient id="paint12_radial_0_9" cx="0" cy="0" r="1" gradientUnits="userSpaceOnUse" gradientTransform="translate(19.0806 164.391) scale(19.0619)">
<stop stop-color="white"/>
<stop offset="1" stop-color="#1A3961"/>
</radialGradient>
<radialGradient id="paint13_radial_0_9" cx="0" cy="0" r="1" gradientUnits="userSpaceOnUse" gradientTransform="translate(19.0806 164.391) scale(19.0619)">
<stop stop-color="white"/>
<stop offset="1" stop-color="#1A3961"/>
</radialGradient>
<radialGradient id="paint14_radial_0_9" cx="0" cy="0" r="1" gradientUnits="userSpaceOnUse" gradientTransform="translate(19.0806 164.391) scale(19.0619)">
<stop stop-color="white"/>
<stop offset="1" stop-color="#1A3961"/>
</radialGradient>
<radialGradient id="paint15_radial_0_9" cx="0" cy="0" r="1" gradientUnits="userSpaceOnUse" gradientTransform="translate(5.70765 165.642) scale(4.77296 14.94)">
<stop stop-color="white"/>
<stop offset="1" stop-color="#1A3961"/>
</radialGradient>
<radialGradient id="paint16_radial_0_9" cx="0" cy="0" r="1" gradientUnits="userSpaceOnUse" gradientTransform="translate(18.3986 182.24) scale(13.3955 3.07931)">
<stop stop-color="white"/>
<stop offset="1" stop-color="#1A3961"/>
</radialGradient>
<radialGradient id="paint17_radial_0_9" cx="0" cy="0" r="1" gradientUnits="userSpaceOnUse" gradientTransform="translate(20.831 163.076) scale(16.0782)">
<stop stop-color="white"/>
<stop offset="1" stop-color="#1A3961"/>
</radialGradient>
<radialGradient id="paint18_radial_0_9" cx="0" cy="0" r="1" gradientUnits="userSpaceOnUse" gradientTransform="translate(120.291 255.291) scale(2.38044 7.4516)">
<stop stop-color="white"/>
<stop offset="1" stop-color="#1A3961"/>
</radialGradient>
<radialGradient id="paint19_radial_0_9" cx="0" cy="0" r="1" gradientUnits="userSpaceOnUse" gradientTransform="translate(126.96 254.668) scale(9.50677 9.50678)">
<stop stop-color="white"/>
<stop offset="1" stop-color="#1A3961"/>
</radialGradient>
<radialGradient id="paint20_radial_0_9" cx="0" cy="0" r="1" gradientUnits="userSpaceOnUse" gradientTransform="translate(126.96 254.668) scale(9.50677 9.50678)">
<stop stop-color="white"/>
<stop offset="1" stop-color="#1A3961"/>
</radialGradient>
<radialGradient id="paint21_radial_0_9" cx="0" cy="0" r="1" gradientUnits="userSpaceOnUse" gradientTransform="translate(126.96 254.668) scale(9.50677 9.50678)">
<stop stop-color="white"/>
<stop offset="1" stop-color="#1A3961"/>
</radialGradient>
<radialGradient id="paint22_radial_0_9" cx="0" cy="0" r="1" gradientUnits="userSpaceOnUse" gradientTransform="translate(126.621 263.57) scale(6.68077 1.53591)">
<stop stop-color="white"/>
<stop offset="1" stop-color="#1A3961"/>
</radialGradient>
<radialGradient id="paint23_radial_0_9" cx="0" cy="0" r="1" gradientUnits="userSpaceOnUse" gradientTransform="translate(127.834 254.012) scale(8.01864 8.01865)">
<stop stop-color="white"/>
<stop offset="1" stop-color="#1A3961"/>
</radialGradient>
<radialGradient id="paint24_radial_0_9" cx="0" cy="0" r="1" gradientUnits="userSpaceOnUse" gradientTransform="translate(99.5395 138.74) scale(45.1091)">
<stop stop-color="white"/>
<stop offset="1" stop-color="#1A3961"/>
</radialGradient>
<radialGradient id="paint25_radial_0_9" cx="0" cy="0" r="1" gradientUnits="userSpaceOnUse" gradientTransform="translate(99.5395 138.74) scale(45.1091)">
<stop stop-color="white"/>
<stop offset="1" stop-color="#1A3961"/>
</radialGradient>
<radialGradient id="paint26_radial_0_9" cx="0" cy="0" r="1" gradientUnits="userSpaceOnUse" gradientTransform="translate(99.5395 138.74) scale(45.1091)">
<stop stop-color="white"/>
<stop offset="1" stop-color="#1A3961"/>
</radialGradient>
<radialGradient id="paint27_radial_0_9" cx="0" cy="0" r="1" gradientUnits="userSpaceOnUse" gradientTransform="translate(67.8936 141.7) scale(11.2954 35.3548)">
<stop stop-color="white"/>
<stop offset="1" stop-color="#1A3961"/>
</radialGradient>
<radialGradient id="paint28_radial_0_9" cx="0" cy="0" r="1" gradientUnits="userSpaceOnUse" gradientTransform="translate(97.9259 180.98) scale(31.6986 7.28695)">
<stop stop-color="white"/>
<stop offset="1" stop-color="#1A3961"/>
</radialGradient>
<radialGradient id="paint29_radial_0_9" cx="0" cy="0" r="1" gradientUnits="userSpaceOnUse" gradientTransform="translate(103.681 135.628) scale(38.0467)">
<stop stop-color="white"/>
<stop offset="1" stop-color="#1A3961"/>
</radialGradient>
<radialGradient id="paint30_radial_0_9" cx="0" cy="0" r="1" gradientUnits="userSpaceOnUse" gradientTransform="translate(97.0353 269.008) scale(7.77743 7.77744)">
<stop stop-color="white"/>
<stop offset="1" stop-color="#1A3961"/>
</radialGradient>
<radialGradient id="paint31_radial_0_9" cx="0" cy="0" r="1" gradientUnits="userSpaceOnUse" gradientTransform="translate(97.0353 269.008) scale(7.77743 7.77744)">
<stop stop-color="white"/>
<stop offset="1" stop-color="#1A3961"/>
</radialGradient>
<radialGradient id="paint32_radial_0_9" cx="0" cy="0" r="1" gradientUnits="userSpaceOnUse" gradientTransform="translate(97.0353 269.008) scale(7.77743 7.77744)">
<stop stop-color="white"/>
<stop offset="1" stop-color="#1A3961"/>
</radialGradient>
<radialGradient id="paint33_radial_0_9" cx="0" cy="0" r="1" gradientUnits="userSpaceOnUse" gradientTransform="translate(91.5785 269.519) scale(1.94753 6.0953)">
<stop stop-color="white"/>
<stop offset="1" stop-color="#1A3961"/>
</radialGradient>
<radialGradient id="paint34_radial_0_9" cx="0" cy="0" r="1" gradientUnits="userSpaceOnUse" gradientTransform="translate(96.7567 276.291) scale(5.4655 1.25612)">
<stop stop-color="white"/>
<stop offset="1" stop-color="#1A3961"/>
</radialGradient>
<radialGradient id="paint35_radial_0_9" cx="0" cy="0" r="1" gradientUnits="userSpaceOnUse" gradientTransform="translate(97.7481 268.473) scale(6.55986)">
<stop stop-color="white"/>
<stop offset="1" stop-color="#1A3961"/>
</radialGradient>
<radialGradient id="paint36_radial_0_9" cx="0" cy="0" r="1" gradientUnits="userSpaceOnUse" gradientTransform="translate(119.927 175.872) scale(12.1111 12.1112)">
<stop stop-color="white"/>
<stop offset="1" stop-color="#1A3961"/>
</radialGradient>
<radialGradient id="paint37_radial_0_9" cx="0" cy="0" r="1" gradientUnits="userSpaceOnUse" gradientTransform="translate(119.927 175.872) scale(12.1111 12.1112)">
<stop stop-color="white"/>
<stop offset="1" stop-color="#1A3961"/>
</radialGradient>
<radialGradient id="paint38_radial_0_9" cx="0" cy="0" r="1" gradientUnits="userSpaceOnUse" gradientTransform="translate(119.927 175.872) scale(12.1111 12.1112)">
<stop stop-color="white"/>
<stop offset="1" stop-color="#1A3961"/>
</radialGradient>
<radialGradient id="paint39_radial_0_9" cx="0" cy="0" r="1" gradientUnits="userSpaceOnUse" gradientTransform="translate(111.431 176.667) scale(3.03267 9.49181)">
<stop stop-color="white"/>
<stop offset="1" stop-color="#1A3961"/>
</radialGradient>
<radialGradient id="paint40_radial_0_9" cx="0" cy="0" r="1" gradientUnits="userSpaceOnUse" gradientTransform="translate(119.495 187.213) scale(8.51026 1.95616)">
<stop stop-color="white"/>
<stop offset="1" stop-color="#1A3961"/>
</radialGradient>
<radialGradient id="paint41_radial_0_9" cx="0" cy="0" r="1" gradientUnits="userSpaceOnUse" gradientTransform="translate(121.038 175.037) scale(10.2143)">
<stop stop-color="white"/>
<stop offset="1" stop-color="#1A3961"/>
</radialGradient>
<radialGradient id="paint42_radial_0_9" cx="0" cy="0" r="1" gradientUnits="userSpaceOnUse" gradientTransform="translate(98.3477 225.803) scale(27.5094)">
<stop stop-color="white"/>
<stop offset="1" stop-color="#1A3961"/>
</radialGradient>
<radialGradient id="paint43_radial_0_9" cx="0" cy="0" r="1" gradientUnits="userSpaceOnUse" gradientTransform="translate(98.3477 225.803) scale(27.5094)">
<stop stop-color="white"/>
<stop offset="1" stop-color="#1A3961"/>
</radialGradient>
<radialGradient id="paint44_radial_0_9" cx="0" cy="0" r="1" gradientUnits="userSpaceOnUse" gradientTransform="translate(98.3477 225.803) scale(27.5094)">
<stop stop-color="white"/>
<stop offset="1" stop-color="#1A3961"/>
</radialGradient>
<radialGradient id="paint45_radial_0_9" cx="0" cy="0" r="1" gradientUnits="userSpaceOnUse" gradientTransform="translate(79.0474 227.608) scale(6.88857 21.5615)">
<stop stop-color="white"/>
<stop offset="1" stop-color="#1A3961"/>
</radialGradient>
<radialGradient id="paint46_radial_0_9" cx="0" cy="0" r="1" gradientUnits="userSpaceOnUse" gradientTransform="translate(97.3628 251.563) scale(19.3319 4.44425)">
<stop stop-color="white"/>
<stop offset="1" stop-color="#1A3961"/>
</radialGradient>
<radialGradient id="paint47_radial_0_9" cx="0" cy="0" r="1" gradientUnits="userSpaceOnUse" gradientTransform="translate(100.873 223.905) scale(23.2033 23.2028)">
<stop stop-color="white"/>
<stop offset="1" stop-color="#1A3961"/>
</radialGradient>
</defs>
</svg>
