<svg preserveAspectRatio="none" overflow="visible" style="display: block;" width="24" height="24" viewBox="0 0 24 24" fill="none" xmlns="http://www.w3.org/2000/svg">
<g id="shirt">
<path id="Vector" d="M16.0004 1.9992L20.3808 3.45932C20.8335 3.61012 21.2173 3.91777 21.4631 4.32673C21.7088 4.73569 21.8003 5.21902 21.721 5.6895L21.1409 9.15977C21.1028 9.3947 20.9822 9.60836 20.8007 9.76233C20.6192 9.91631 20.3888 10.0005 20.1508 9.99984H18.0006V20.0006C18.0006 20.5311 17.7899 21.0399 17.4147 21.415C17.0396 21.7901 16.5309 22.0008 16.0004 22.0008H7.99961C6.8995 22.0008 5.99941 21.1007 5.99941 20.0006V9.99984H3.8492C3.6112 10.0005 3.38076 9.91631 3.19928 9.76233C3.0178 9.60836 2.89718 9.3947 2.8591 9.15977L2.27905 5.6895C2.19972 5.21902 2.29118 4.73569 2.53693 4.32673C2.78267 3.91777 3.16652 3.61012 3.61918 3.45932L7.99961 1.9992C7.99961 3.06015 8.42108 4.07765 9.1713 4.82785C9.92151 5.57806 10.939 5.99952 12 5.99952C13.061 5.99952 14.0785 5.57806 14.8287 4.82785C15.5789 4.07765 16.0004 3.06015 16.0004 1.9992Z" stroke="#22C55E" stroke-width="1.8" stroke-linecap="round"/>
</g>
</svg>
